<svg xmlns="http://www.w3.org/2000/svg" width="20" height="20" viewBox="0 0 20 20">
  <g id="camera" transform="translate(0.076)" opacity="0.4">
    <path id="Path_26431" data-name="Path 26431" d="M0,0H20V20H0Z" transform="translate(-0.076)" fill="none"/>
    <path id="Path_26430" data-name="Path 26430" d="M14.208,4.217l-.067-.033-.008.017a8.571,8.571,0,0,0-1.8-.2,8.348,8.348,0,1,0,1.875.217Zm4.3,5.617H11.85l2.258-3.917A6.687,6.687,0,0,1,18.508,9.833Zm-5.258-4.1-2.358,4.1L9.933,11.5,7.667,7.583a6.594,6.594,0,0,1,5.583-1.85ZM7.083,8.242,9.45,12.333,10.408,14H5.883a6.868,6.868,0,0,1-.217-1.667A6.634,6.634,0,0,1,7.083,8.242Zm-.925,6.592h6.65L10.55,18.75A6.694,6.694,0,0,1,6.158,14.833Zm5.258,4.092,3.325-5.758,2.267,3.917A6.666,6.666,0,0,1,12.333,19,6.582,6.582,0,0,1,11.417,18.925Zm6.167-2.5L14.25,10.667h4.525A6.486,6.486,0,0,1,19,12.333,6.634,6.634,0,0,1,17.583,16.425Z" transform="translate(-2.076 -2)" fill="#fff"/>
  </g>
</svg>
