<svg xmlns="http://www.w3.org/2000/svg" width="13.201" height="13.2" viewBox="0 0 13.201 13.2">
  <g id="Group_153" data-name="Group 153" transform="translate(-570.119 315.651) rotate(-45)">
    <path id="Path_239" data-name="Path 239" d="M4474.879,192.5h-15.09a1.028,1.028,0,0,1,0-2h15.09a1.028,1.028,0,0,1,0,2Z" transform="translate(-3841 -2.23)" fill="#fff"/>
    <path id="Path_240" data-name="Path 240" d="M15.879,2H.789A.914.914,0,0,1,0,1,.914.914,0,0,1,.789,0h15.09a.914.914,0,0,1,.789,1A.914.914,0,0,1,15.879,2Z" transform="translate(625.334 197.604) rotate(-90)" fill="#fff"/>
  </g>
</svg>
