<svg xmlns="http://www.w3.org/2000/svg" width="14.418" height="16.663" viewBox="0 0 14.418 16.663">
  <path id="Path_28074" data-name="Path 28074" d="M18.311,15.42h-.87v-.863a1.693,1.693,0,0,0-1.691-1.691H12.578V11.678h3.045a2.625,2.625,0,0,0,1.147-4.989,2.32,2.32,0,0,0,.113-.707,2.39,2.39,0,0,0-2.4-2.377,2.349,2.349,0,0,0-1.434.482A2.659,2.659,0,0,0,10.9,3,2.687,2.687,0,0,0,8.216,5.684v.031a2.988,2.988,0,0,0,.277,5.963h2.7v1.189H8.018a1.693,1.693,0,0,0-1.691,1.691v.863H5.341a.726.726,0,0,0-.724.724v2.795a.726.726,0,0,0,.724.724H8.469a.726.726,0,0,0,.724-.724V16.144a.726.726,0,0,0-.724-.724H7.715v-.863a.3.3,0,0,1,.3-.3h7.732a.3.3,0,0,1,.3.3v.863h-.869a.726.726,0,0,0-.724.724v2.795a.726.726,0,0,0,.724.724h3.128a.726.726,0,0,0,.724-.724V16.144A.726.726,0,0,0,18.311,15.42Z" transform="translate(-4.617 -3)" fill="#fff"/>
</svg>
