<svg xmlns="http://www.w3.org/2000/svg" width="18.118" height="18.861" viewBox="0 0 18.118 18.861">
  <g id="wifi" transform="translate(0 0.743)" opacity="0.4">
    <path id="Path_26473" data-name="Path 26473" d="M0,0H18.118V18.118H0Z" fill="none"/>
    <path id="lock" d="M25.421,9.1V6.986a4.486,4.486,0,0,0-8.971,0V9.1A2.025,2.025,0,0,0,14.6,11.113v2.517a5.874,5.874,0,0,0,5.867,5.87H21.4a5.874,5.874,0,0,0,5.867-5.87V11.113A2.025,2.025,0,0,0,25.421,9.1Zm-7.03-2.112a2.544,2.544,0,0,1,5.088,0v2.1H18.391Zm1.834,7.543a1.278,1.278,0,1,1,1.42,0,.3.3,0,0,0-.131.248v1.047a.579.579,0,0,1-1.157,0V14.776a.3.3,0,0,0-.131-.248Z" transform="translate(-11.877 -3.243)" fill="#fff"/>
  </g>
</svg>
