<svg id="pin" xmlns="http://www.w3.org/2000/svg" width="15.095" height="15.095" viewBox="0 0 15.095 15.095">
  <path id="Path_26495" data-name="Path 26495" d="M8,16.389l3.145-3.145m0,0,2.488,2.488a.628.628,0,0,0,1.022-.2l1.418-3.308a.636.636,0,0,1,.346-.336l2.016-.805a.632.632,0,0,0,.384-.459.623.623,0,0,0-.17-.569L14.334,5.741a.623.623,0,0,0-.569-.17.632.632,0,0,0-.459.384L12.5,7.97a.636.636,0,0,1-.336.346L8.855,9.734a.628.628,0,0,0-.2,1.022Z" transform="translate(-5.484 -3.81)" fill="none" stroke="#fff" stroke-linecap="round" stroke-linejoin="round" stroke-width="1.3"/>
  <path id="Path_26496" data-name="Path 26496" d="M0,0H15.095V15.095H0Z" fill="none"/>
</svg>
