<svg xmlns="http://www.w3.org/2000/svg" width="21.712" height="21.712" viewBox="0 0 21.712 21.712">
  <path id="Icon_material-gps-fixed" data-name="Icon material-gps-fixed" d="M12.356,8.408A3.948,3.948,0,1,0,16.3,12.356,3.947,3.947,0,0,0,12.356,8.408Zm8.823,2.961a8.877,8.877,0,0,0-7.836-7.836V1.5H11.369V3.533a8.877,8.877,0,0,0-7.836,7.836H1.5v1.974H3.533a8.877,8.877,0,0,0,7.836,7.836v2.033h1.974V21.179a8.877,8.877,0,0,0,7.836-7.836h2.033V11.369Zm-8.823,7.9a6.908,6.908,0,1,1,6.908-6.908A6.9,6.9,0,0,1,12.356,19.264Z" transform="translate(23.212 23.212) rotate(180)" fill="#fff"/>
</svg>
