<svg xmlns="http://www.w3.org/2000/svg" width="24" height="24" viewBox="0 0 24 24">
  <g id="Group_87505" data-name="Group 87505" transform="translate(21969 7935)">
    <g id="Group_87500" data-name="Group 87500" transform="translate(-160.778 26.118)">
      <g id="Group_87482" data-name="Group 87482" transform="translate(-21807.223 -7957.5)">
        <path id="Subtraction_11" data-name="Subtraction 11" d="M8.008,15.065H7.057a1.82,1.82,0,0,1-.626-.053.752.752,0,0,1-.392-.355,1.824,1.824,0,0,1-.114-.617v-.008A2.479,2.479,0,0,0,5.7,12.943a.753.753,0,0,0-.7-.29c-.21.028-.449.223-.925.612l-.008.007,0,0a1.784,1.784,0,0,1-.513.351.755.755,0,0,1-.529-.026,1.819,1.819,0,0,1-.48-.4l-.672-.673a1.847,1.847,0,0,1-.406-.48.755.755,0,0,1-.026-.529A1.784,1.784,0,0,1,1.79,11l0,0,.007-.008c.389-.476.584-.715.612-.925a.756.756,0,0,0-.289-.7,2.519,2.519,0,0,0-1.1-.222,1.83,1.83,0,0,1-.618-.114.752.752,0,0,1-.355-.392A1.815,1.815,0,0,1,0,8.008V7.057a1.82,1.82,0,0,1,.053-.626.752.752,0,0,1,.355-.392,1.826,1.826,0,0,1,.617-.114h.007A2.489,2.489,0,0,0,2.123,5.7a.754.754,0,0,0,.29-.7c-.029-.21-.224-.449-.613-.925l-.007-.008,0,0a1.784,1.784,0,0,1-.351-.513.752.752,0,0,1,.026-.528,1.831,1.831,0,0,1,.406-.48l.672-.673,0,0a1.818,1.818,0,0,1,.476-.4.752.752,0,0,1,.528-.026,1.784,1.784,0,0,1,.513.351l0,0,.008.007c.476.389.715.584.925.612a.753.753,0,0,0,.7-.29,2.48,2.48,0,0,0,.222-1.09V1.026A1.819,1.819,0,0,1,6.038.409.752.752,0,0,1,6.43.053,1.82,1.82,0,0,1,7.057,0h.951a1.82,1.82,0,0,1,.626.053.752.752,0,0,1,.392.355,1.814,1.814,0,0,1,.114.617v.007a2.489,2.489,0,0,0,.222,1.09.753.753,0,0,0,.7.29c.21-.029.449-.224.925-.613L11,1.794a1.825,1.825,0,0,1,.517-.355.759.759,0,0,1,.229-.035.742.742,0,0,1,.3.062,1.8,1.8,0,0,1,.481.4l.016.016A8.283,8.283,0,0,0,8.833,4.814a2.984,2.984,0,0,0-1.3-.294,3.013,3.013,0,0,0-.154,6.022,8.257,8.257,0,0,0,1.661,4.091l-.007.014-.005.01a.751.751,0,0,1-.392.355A1.82,1.82,0,0,1,8.008,15.065Z" transform="translate(0 0)" fill="#fff" opacity="0.998"/>
        <rect id="Rectangle_3911" data-name="Rectangle 3911" width="12.805" height="12.805" rx="6.403" transform="translate(9.207 3.181)" fill="#014eff"/>
      </g>
      <text id="_4" data-name="4" transform="translate(-21794.25 -7945.319)" fill="#fff" font-size="9" font-family="Poppins-SemiBold, Poppins" font-weight="600"><tspan x="0" y="0">4</tspan></text>
    </g>
    <rect id="Rectangle_4295" data-name="Rectangle 4295" width="24" height="24" transform="translate(-21969 -7935)" fill="none"/>
  </g>
</svg>
