<svg xmlns="http://www.w3.org/2000/svg" width="18.118" height="18.118" viewBox="0 0 18.118 18.118">
  <g id="wifi" opacity="0.4">
    <path id="Path_26472" data-name="Path 26472" d="M1.38,9.016a13.593,13.593,0,0,1,17.076,0l-1.423,1.763a11.326,11.326,0,0,0-14.23,0Zm2.37,2.937a9.822,9.822,0,0,1,12.335,0l-1.423,1.763a7.554,7.554,0,0,0-9.489,0Zm2.374,2.937a6.039,6.039,0,0,1,7.587,0l-1.423,1.763a3.772,3.772,0,0,0-4.741,0Zm2.37,2.937a2.268,2.268,0,0,1,2.846,0L9.918,19.588Z" transform="translate(-0.859 -3.735)" fill="#fff"/>
    <path id="Path_26473" data-name="Path 26473" d="M0,0H18.118V18.118H0Z" fill="none"/>
  </g>
</svg>
